<svg version="1.0" xmlns="http://www.w3.org/2000/svg" width="682.667" height="682.667" viewBox="0 0 512 512"><path d="M218.5 55.7c-30.5 2-55.6 5.3-68.1 8.9-20.8 6-37.6 16.3-54.4 33.3-16.7 17-26.7 34.4-32.4 56.4-2.5 9.7-5.9 37.2-7.6 61.7-2.7 39.1-.1 100.5 5.7 132.5 8.9 49.9 48.2 90.6 97.6 101.1 10.5 2.2 37.2 5.1 60.2 6.5 36.1 2.2 86.3.3 122.3-4.6 58-7.9 101-50.6 109.6-108.7 4.2-28.4 5-42.3 5-87.3 0-38.8-.2-46.4-2.2-64.4-3.6-32.9-6.8-45.6-16-63.5-16.5-32.2-47.5-56.4-82.6-64.6-21.2-5-61.5-8.1-102.1-7.8-16.5.1-32.2.3-35 .5zm78 40.3c20.2 1.5 40.9 3.9 49 5.7 31.9 7.2 58.1 33.6 64.9 65.5 4 18.7 6.6 53.8 6.6 88.8s-2.6 70.1-6.6 88.8c-6.8 31.9-33 58.3-64.9 65.5C328 414.2 291 417 256 417s-70.1-2.6-88.8-6.6c-31.9-6.8-58.3-33-65.5-64.9-1.8-8.1-4.2-28.8-5.7-49-2.8-38.8.1-105.1 5.7-130 7.1-31.7 33.3-57.8 64.9-64.8 7.7-1.7 30-4.4 46.9-5.6 16.2-1.2 66.9-1.2 83-.1z"/><path d="M246.9 154.3c-2.4 1.3-5.7 4.3-7.4 6.6l-3 4.3-.3 35.3-.3 35.4-35.4.3-35.3.3-4.3 3c-11.7 8.3-11.7 24.7 0 33l4.3 3 35.3.3 35.4.3.3 35.4.3 35.3 3 4.3c8.3 11.7 24.7 11.7 33 0l3-4.3.3-35.3.3-35.4 35.4-.3 35.3-.3 4.3-3c11.7-8.3 11.7-24.7 0-33l-4.3-3-35.3-.3-35.4-.3-.3-35.4-.3-35.3-3-4.3c-3.8-5.4-10.3-8.9-16.5-8.9-3 0-6.3.8-9.1 2.3z"/></svg>