<svg version="1.0" xmlns="http://www.w3.org/2000/svg" width="682.667" height="682.667" viewBox="0 0 512 512"><path d="M241.6 16c-43.5 5.5-81.8 32.7-100.6 71.5-26.8 55.1-10.7 121.7 38.3 158.6 6.3 4.7 7.5 6 6 6.5-6.9 2.4-22.3 9.4-29.8 13.6-50.4 28.3-87 75.6-100.9 130.6-5.8 22.8-8.2 50.7-5.3 61.9 4.8 18.3 19.3 32.6 36.9 36.2 3.7.8 31.8 1.1 90.5.9 84.2-.3 85.2-.3 87.9-2.4 5.3-3.9 6.9-7.1 6.9-13.4 0-6.3-1.6-9.5-6.9-13.4-2.7-2.1-3.8-2.1-88.6-2.6s-85.9-.5-88.6-2.6c-7.2-5.3-8.5-11.3-6.5-30.1C84 402.2 93.2 376 108.8 352c16.2-25 39.5-46 66.2-59.9 25.9-13.4 46.2-18.5 80.5-20.1 13.9-.7 21.8-1.6 29.5-3.4 49.8-11.4 86.2-49.2 97.6-101.1 2.4-11 2.4-36.9 0-48-5.7-26.2-17.4-48.3-35.1-66.1-18.4-18.5-40.9-30.6-66.8-35.9-9.5-1.9-29.7-2.7-39.1-1.5zm37.5 34.9c17.5 4.5 31.7 12.7 44.5 25.5 13 12.9 20.9 26.9 25.6 44.9 3.2 12.1 3.2 33.9 0 45.7-5 18.5-12.3 31-25.7 44.5-17.7 17.7-37.5 26.6-62.1 28.2-40.5 2.5-79.3-22.1-94.3-59.8-5.3-13.3-6.5-19.9-6.5-35.9 0-15.3 1.7-24.6 6.6-36.5 6.3-14.9 19.7-32 32.2-40.9 11.5-8.2 26-14.5 40.1-17.2 9.6-1.9 29.6-1.1 39.6 1.5z"/><path d="M369.5 289.4c-3.7 1.7-7 5.2-8.4 8.9-.7 1.8-1.1 13.8-1.1 32.2v29.4l-30.9.3c-29.5.3-31.1.4-33.7 2.4-5.3 3.9-6.9 7.1-6.9 13.4 0 6.3 1.6 9.5 6.9 13.4 2.6 2 4.2 2.1 33.6 2.4l30.9.3.3 30.9c.3 29.4.4 31 2.4 33.6 3.9 5.3 7.1 6.9 13.4 6.9 6.3 0 9.5-1.6 13.4-6.9 2-2.6 2.1-4.2 2.4-33.6l.3-30.9 30.9-.3c29.4-.3 31-.4 33.6-2.4 5.3-3.9 6.9-7.1 6.9-13.4 0-6.3-1.6-9.5-6.9-13.4-2.6-2-4.2-2.1-33.6-2.4l-30.9-.3-.3-30.9c-.3-29.4-.4-31-2.4-33.6-1.1-1.5-3.2-3.7-4.6-4.7-3.4-2.5-11.3-3.2-15.3-1.3z"/></svg>