<?xml version="1.0" standalone="no"?>
<!DOCTYPE svg PUBLIC "-//W3C//DTD SVG 20010904//EN"
 "http://www.w3.org/TR/2001/REC-SVG-20010904/DTD/svg10.dtd">
<svg version="1.0" xmlns="http://www.w3.org/2000/svg"
 width="512.000000pt" height="512.000000pt" viewBox="0 0 512.000000 512.000000"
 preserveAspectRatio="xMidYMid meet">

<g transform="translate(0.000000,512.000000) scale(0.100000,-0.100000)"
fill="#000000" stroke="none">
<path d="M2185 4563 c-305 -20 -556 -53 -681 -89 -208 -60 -376 -163 -544
-333 -167 -170 -267 -344 -324 -564 -25 -97 -59 -372 -76 -617 -27 -391 -1
-1005 57 -1325 89 -499 482 -906 976 -1011 105 -22 372 -51 602 -65 361 -22
863 -3 1223 46 580 79 1010 506 1096 1087 42 284 50 423 50 873 0 388 -2 464
-22 644 -36 329 -68 456 -160 635 -165 322 -475 564 -826 646 -212 50 -615 81
-1021 78 -165 -1 -322 -3 -350 -5z m780 -403 c202 -15 409 -39 490 -57 319
-72 581 -336 649 -655 40 -187 66 -538 66 -888 0 -350 -26 -701 -66 -888 -68
-319 -330 -583 -649 -655 -175 -39 -545 -67 -895 -67 -350 0 -701 26 -888 66
-319 68 -583 330 -655 649 -18 81 -42 288 -57 490 -28 388 1 1051 57 1300 71
317 333 578 649 648 77 17 300 44 469 56 162 12 669 12 830 1z"/>
<path d="M2469 3577 c-24 -13 -57 -43 -74 -66 l-30 -43 -3 -353 -3 -354 -354
-3 -353 -3 -43 -30 c-117 -83 -117 -247 0 -330 l43 -30 353 -3 354 -3 3 -354
3 -353 30 -43 c83 -117 247 -117 330 0 l30 43 3 353 3 354 354 3 353 3 43 30
c117 83 117 247 0 330 l-43 30 -353 3 -354 3 -3 354 -3 353 -30 43 c-38 54
-103 89 -165 89 -30 0 -63 -8 -91 -23z"/>
</g>
</svg>
