<?xml version="1.0" standalone="no"?>
<!DOCTYPE svg PUBLIC "-//W3C//DTD SVG 20010904//EN"
 "http://www.w3.org/TR/2001/REC-SVG-20010904/DTD/svg10.dtd">
<svg version="1.0" xmlns="http://www.w3.org/2000/svg"
 width="512.000000pt" height="512.000000pt" viewBox="0 0 512.000000 512.000000"
 preserveAspectRatio="xMidYMid meet">

<g transform="translate(0.000000,512.000000) scale(0.100000,-0.100000)"
fill="#000000" stroke="none">
<path d="M135 3746 c-60 -28 -87 -56 -114 -116 -17 -38 -21 -66 -21 -178 0
-143 6 -166 55 -212 25 -23 35 -25 160 -30 122 -5 136 -7 159 -29 31 -29 40
-66 25 -103 -19 -47 -54 -58 -182 -58 -102 0 -118 -2 -148 -23 -68 -45 -69
-50 -69 -452 1 -275 4 -369 14 -398 32 -87 104 -142 205 -154 l51 -6 0 -297 0
-297 23 -21 23 -22 1053 0 1052 0 24 25 c25 24 25 27 25 194 0 165 1 171 24
198 34 39 98 39 132 0 23 -27 24 -33 24 -198 0 -167 0 -170 25 -194 l24 -25
1054 0 1054 0 21 23 c22 23 22 29 22 319 l0 295 51 6 c101 12 173 67 205 154
10 29 13 123 14 398 0 402 -1 407 -69 452 -30 21 -46 23 -147 23 -128 0 -156
9 -179 56 -19 40 -12 74 21 105 23 22 37 24 159 29 130 5 134 6 164 34 47 45
53 70 49 223 -3 135 -4 141 -33 189 -19 30 -49 60 -79 79 l-49 30 -1992 3
-1992 2 -27 -21 c-30 -23 -35 -72 -12 -105 14 -19 49 -19 2000 -24 l1985 -5
23 -23 c20 -20 23 -34 26 -126 l4 -103 -119 -5 c-95 -4 -126 -9 -159 -26 -155
-80 -178 -290 -44 -404 53 -46 98 -58 219 -58 l102 0 -3 -339 c-3 -317 -4
-340 -22 -360 l-19 -21 -2367 0 -2367 0 -19 21 c-18 20 -19 43 -22 360 l-3
339 102 0 c133 0 172 12 235 75 81 81 97 193 39 291 -52 89 -131 124 -282 124
l-95 0 4 105 c5 158 -13 149 306 153 246 3 258 4 279 24 33 30 31 80 -3 107
-25 20 -39 21 -288 21 -253 0 -262 -1 -311 -24z m4565 -2001 l0 -245 -95 0
-95 0 0 169 c0 164 -1 171 -23 197 -30 35 -79 37 -110 5 -21 -20 -22 -32 -25
-196 l-3 -175 -89 0 -88 0 -4 175 c-3 159 -5 176 -23 194 -11 11 -32 23 -47
26 -22 6 -33 1 -58 -23 l-30 -30 0 -171 0 -171 -95 0 -95 0 0 171 c0 101 -4
178 -11 190 -25 48 -105 44 -128 -7 -7 -15 -11 -88 -11 -189 l0 -165 -95 0
-95 0 0 173 c0 187 -5 209 -55 221 -29 7 -79 -15 -89 -39 -3 -9 -6 -93 -6
-186 l0 -169 -95 0 -95 0 0 169 c0 93 -3 177 -6 186 -10 24 -60 46 -89 39 -50
-12 -55 -34 -55 -221 l0 -173 -89 0 -88 0 -5 134 c-5 126 -7 138 -35 188 -19
34 -47 65 -77 85 -119 81 -278 42 -349 -85 -28 -50 -30 -62 -35 -188 l-5 -134
-88 0 -89 0 0 173 c0 187 -5 209 -55 221 -29 7 -79 -15 -89 -39 -3 -9 -6 -93
-6 -186 l0 -169 -95 0 -95 0 0 169 c0 93 -3 177 -6 186 -10 24 -60 46 -89 39
-50 -12 -55 -34 -55 -221 l0 -173 -95 0 -95 0 0 165 c0 99 -4 174 -11 188 -21
47 -80 56 -121 19 -16 -13 -18 -36 -18 -194 l0 -178 -95 0 -95 0 0 171 0 171
-30 30 c-25 24 -36 29 -58 23 -15 -3 -36 -15 -47 -26 -18 -18 -20 -35 -23
-194 l-4 -175 -88 0 -89 0 -3 175 c-3 164 -4 176 -25 196 -31 32 -80 30 -110
-5 -22 -26 -23 -33 -23 -197 l0 -169 -95 0 -95 0 0 245 0 245 2140 0 2140 0 0
-245z"/>
<path d="M1024 3461 c-23 -10 -52 -34 -65 -52 l-24 -34 0 -502 c0 -490 0 -502
21 -530 11 -15 40 -38 64 -50 41 -21 57 -23 225 -23 168 0 184 2 225 23 31 15
51 35 67 66 l23 44 0 470 c0 456 -1 472 -21 513 -12 26 -36 53 -57 66 -35 22
-49 23 -227 26 -169 2 -194 0 -231 -17z m386 -568 c0 -236 -3 -438 -6 -450 -6
-23 -9 -23 -149 -23 -79 0 -150 3 -159 6 -14 5 -16 54 -16 450 l0 444 165 0
165 0 0 -427z"/>
<path d="M1900 3458 c-25 -13 -55 -38 -67 -57 l-23 -34 0 -492 0 -492 23 -33
c48 -71 59 -75 260 -78 100 -2 197 -1 215 3 45 8 109 68 122 113 13 49 14 925
0 971 -13 46 -65 99 -110 111 -19 5 -112 10 -205 10 -157 0 -174 -2 -215 -22z
m380 -588 l0 -450 -144 0 c-79 0 -151 3 -160 6 -14 5 -16 54 -16 450 l0 444
160 0 160 0 0 -450z"/>
<path d="M2796 3470 c-41 -13 -94 -68 -106 -110 -13 -48 -13 -923 0 -972 13
-45 77 -105 122 -113 18 -4 115 -5 215 -3 201 3 212 7 261 78 l22 33 0 492 0
492 -23 34 c-12 19 -42 44 -67 57 -41 20 -57 22 -220 21 -96 0 -188 -5 -204
-9z m362 -597 l-3 -448 -155 0 -155 0 -3 448 -2 447 160 0 160 0 -2 -447z"/>
<path d="M3679 3470 c-46 -13 -78 -41 -99 -84 -19 -41 -20 -59 -20 -512 0
-467 0 -470 23 -514 15 -31 35 -51 66 -67 41 -22 56 -23 225 -23 169 0 185 2
226 23 24 12 53 35 64 50 21 28 21 40 21 530 l0 502 -24 34 c-44 61 -83 71
-281 70 -96 0 -187 -4 -201 -9z m359 -597 l-3 -448 -140 -3 c-77 -1 -150 0
-162 3 l-23 5 0 429 c0 236 3 436 6 445 5 14 29 16 165 16 l159 0 -2 -447z"/>
</g>
</svg>
